<svg xmlns="http://www.w3.org/2000/svg" xmlns:xlink="http://www.w3.org/1999/xlink" version="1.1" x="0px" y="0px" viewBox="0 0 100 125" enable-background="new 0 0 100 100" xml:space="preserve"><path d="M38.3,53.7L35,55.2c-9.1,4.3-15,13.5-15,23.6l0,13.7c0,1.4,1.1,2.5,2.5,2.5h55c1.4,0,2.5-1.1,2.5-2.5v-10  c0-12.3-7.2-23.6-18.3-28.8c-2.4-1.1-3.8-2.5-3.8-3.7c0-1.2,1.5-2.6,3.8-3.7l3.3-1.5c9.1-4.3,15-13.5,15-23.6V7.5  C80,6.1,78.9,5,77.5,5h-55C21.1,5,20,6.1,20,7.5v10c0,12.3,7.2,23.6,18.3,28.8c2.4,1.1,3.8,2.5,3.8,3.7  C42.2,51.2,40.7,52.6,38.3,53.7z M75,90H25l0-5h7.5h35H75V90z M35.5,82.5L50,68l14.5,14.5H35.5z M25,10h50v5H25V10z M40.5,41.8  C31.1,37.4,25,27.9,25,17.5h50v3.7c0,8.1-4.8,15.6-12.1,19.1l-3.3,1.5c-5.8,2.7-6.7,6.3-6.7,8.2s0.9,5.5,6.7,8.2  C68.9,62.6,75,72.1,75,82.5h-7L50.9,65.4c-0.5-0.5-1.3-0.5-1.8,0L32,82.5h-7l0-3.7c0-8.1,4.8-15.6,12.1-19.1l3.3-1.5  c5.8-2.7,6.7-6.3,6.7-8.2C47.2,48.1,46.3,44.5,40.5,41.8z"/><path d="M50,47c0.5,0,0.9-0.3,1.1-0.7c1.2-2.8,3.7-5.1,7.3-6.8l3.3-1.5c4.7-2.2,8.3-6.3,9.9-11.3c0.1-0.4,0-0.8-0.2-1.1  c-0.2-0.3-0.6-0.5-1-0.5h-40c-0.4,0-0.8,0.2-1,0.6c-0.2,0.3-0.3,0.8-0.1,1.2c2.3,5.7,6.7,10.2,12.2,12.8c3.6,1.7,6.1,4,7.3,6.8  C49.1,46.7,49.5,47,50,47z M42.6,37.3c-4.4-2-7.9-5.5-10.1-9.8h36.2c-1.6,3.6-4.4,6.5-7.9,8.2l-3.3,1.5c-3.3,1.5-5.8,3.5-7.4,6  C48.4,40.8,45.9,38.8,42.6,37.3z"/><circle cx="50" cy="51.3" r="1.3"/><circle cx="50" cy="56.3" r="1.3"/><circle cx="50" cy="61.3" r="1.3"/></svg>